<?xml version="1.0" encoding="utf-8"?>
<!-- Generator: Adobe Illustrator 28.0.0, SVG Export Plug-In . SVG Version: 6.00 Build 0)  -->
<svg version="1.1" id="Capa_3" xmlns="http://www.w3.org/2000/svg" xmlns:xlink="http://www.w3.org/1999/xlink" x="0px" y="0px"
	 viewBox="0 0 250 150" style="enable-background:new 0 0 250 150;" xml:space="preserve">
<style type="text/css">
	.st0{fill:none;stroke:#010202;stroke-width:0.5;stroke-miterlimit:3.864;}
	.st1{fill:none;stroke:#010202;stroke-width:0.5;}
	.st2{enable-background:new    ;}
	.st3{fill:#010202;}
	.st4{fill:#EBE9E7;}
</style>
<polygon id="XMLID_19_" class="st0" points="129.7,50.8 135.5,50.8 137.1,100.7 128.1,100.7 "/>
<polyline id="XMLID_18_" class="st1" points="137.3,100.7 156.2,100.7 148.3,51.6 "/>
<polyline id="XMLID_13_" class="st1" points="128.2,100.7 109.3,100.7 117.2,51.6 "/>
<g class="st2">
	<path class="st3" d="M91.5,131.3v1.5h-8.5v-1.5h3.6v-10.7c-0.1,0.2-0.4,0.4-0.7,0.7c-0.3,0.2-0.7,0.4-1.1,0.6s-0.8,0.4-1.2,0.5
		c-0.4,0.1-0.8,0.2-1.1,0.2v-1.7c0.4,0,0.8-0.1,1.3-0.3c0.5-0.2,0.9-0.5,1.3-0.8c0.4-0.3,0.8-0.6,1-0.8c0.3-0.2,0.4-0.4,0.5-0.5h1.8
		v12.7H91.5z"/>
	<path class="st3" d="M102.1,119.8h-9.6v-1.6h12.3l-9,17.8h-1.9L102.1,119.8z"/>
	<path class="st3" d="M118.6,125.5c0,1.1-0.2,2.1-0.5,3c-0.3,0.9-0.8,1.7-1.3,2.4c-0.6,0.7-1.2,1.2-2,1.6s-1.6,0.6-2.5,0.6
		s-1.7-0.2-2.5-0.6s-1.4-0.9-2-1.6c-0.6-0.7-1-1.5-1.3-2.4c-0.3-0.9-0.5-1.9-0.5-3c0-1.1,0.2-2.1,0.5-3c0.3-0.9,0.8-1.7,1.3-2.4
		c0.6-0.7,1.2-1.2,2-1.6c0.8-0.4,1.6-0.6,2.5-0.6s1.7,0.2,2.5,0.6c0.8,0.4,1.4,0.9,2,1.6c0.6,0.7,1,1.5,1.3,2.4
		C118.4,123.4,118.6,124.4,118.6,125.5z M116.9,125.5c0-0.9-0.1-1.7-0.3-2.5c-0.2-0.7-0.5-1.4-0.9-1.9c-0.4-0.5-0.9-0.9-1.4-1.2
		c-0.6-0.3-1.2-0.4-1.8-0.4c-0.7,0-1.3,0.1-1.9,0.4c-0.6,0.3-1,0.7-1.4,1.2c-0.4,0.5-0.7,1.2-0.9,1.9c-0.2,0.7-0.3,1.6-0.3,2.5
		c0,0.9,0.1,1.7,0.3,2.5s0.5,1.4,0.9,1.9c0.4,0.5,0.9,0.9,1.4,1.2c0.6,0.3,1.2,0.4,1.9,0.4c0.7,0,1.3-0.1,1.8-0.4
		c0.6-0.3,1-0.7,1.4-1.2c0.4-0.5,0.7-1.2,0.9-1.9C116.8,127.2,116.9,126.4,116.9,125.5z"/>
	<path class="st3" d="M128.5,119.8l3.9,5.1l0.2,0.4l0.2-0.4l3.9-5.1h1.8l-5,6.6l5,6.5h-1.8l-3.9-5.1l-0.2-0.3l-0.2,0.3l-3.9,5.1
		h-1.8l5-6.5l-5-6.6H128.5z"/>
	<path class="st3" d="M155.5,131.3v1.5H147v-1.5h3.6v-10.7c-0.1,0.2-0.4,0.4-0.7,0.7c-0.3,0.2-0.7,0.4-1.1,0.6s-0.8,0.4-1.2,0.5
		c-0.4,0.1-0.8,0.2-1.1,0.2v-1.7c0.4,0,0.8-0.1,1.3-0.3c0.5-0.2,0.9-0.5,1.3-0.8c0.4-0.3,0.8-0.6,1-0.8s0.4-0.4,0.5-0.5h1.8v12.7
		H155.5z"/>
	<path class="st3" d="M169.9,125.5c0,1.1-0.2,2.1-0.5,3c-0.3,0.9-0.8,1.7-1.3,2.4c-0.6,0.7-1.2,1.2-2,1.6s-1.6,0.6-2.5,0.6
		c-0.9,0-1.7-0.2-2.5-0.6s-1.4-0.9-2-1.6s-1-1.5-1.3-2.4c-0.3-0.9-0.5-1.9-0.5-3c0-1.1,0.2-2.1,0.5-3s0.8-1.7,1.3-2.4s1.2-1.2,2-1.6
		c0.8-0.4,1.6-0.6,2.5-0.6c0.9,0,1.7,0.2,2.5,0.6c0.8,0.4,1.4,0.9,2,1.6c0.6,0.7,1,1.5,1.3,2.4C169.8,123.4,169.9,124.4,169.9,125.5
		z M168.2,125.5c0-0.9-0.1-1.7-0.3-2.5c-0.2-0.7-0.5-1.4-0.9-1.9c-0.4-0.5-0.9-0.9-1.4-1.2c-0.6-0.3-1.2-0.4-1.8-0.4
		c-0.7,0-1.3,0.1-1.9,0.4c-0.6,0.3-1,0.7-1.4,1.2c-0.4,0.5-0.7,1.2-0.9,1.9c-0.2,0.7-0.3,1.6-0.3,2.5c0,0.9,0.1,1.7,0.3,2.5
		c0.2,0.7,0.5,1.4,0.9,1.9c0.4,0.5,0.9,0.9,1.4,1.2c0.6,0.3,1.2,0.4,1.9,0.4c0.7,0,1.3-0.1,1.8-0.4c0.6-0.3,1-0.7,1.4-1.2
		c0.4-0.5,0.7-1.2,0.9-1.9S168.2,126.4,168.2,125.5z"/>
	<path class="st3" d="M178.2,125c0.8,0,1.6,0.1,2.3,0.4c0.7,0.3,1.3,0.7,1.8,1.2c0.5,0.5,0.9,1.1,1.2,1.8s0.5,1.5,0.5,2.3
		c0,0.9-0.2,1.7-0.5,2.4c-0.3,0.7-0.8,1.3-1.3,1.8c-0.6,0.5-1.2,0.9-2,1.2s-1.5,0.4-2.4,0.4c-0.6,0-1.2-0.1-1.8-0.2
		c-0.6-0.2-1.1-0.4-1.6-0.7s-0.9-0.7-1.3-1.1c-0.4-0.4-0.7-0.9-1-1.4l1.1-0.9c0.5,0.8,1.1,1.5,1.9,2c0.8,0.5,1.7,0.8,2.7,0.8
		c0.6,0,1.2-0.1,1.7-0.3c0.5-0.2,1-0.5,1.4-0.9c0.4-0.4,0.7-0.8,0.9-1.4s0.3-1.1,0.3-1.8c0-0.6-0.1-1.2-0.3-1.7
		c-0.2-0.5-0.5-0.9-0.9-1.3c-0.4-0.4-0.8-0.7-1.3-0.8c-0.5-0.2-1.1-0.3-1.7-0.3c-0.8,0-1.5,0.2-2.2,0.5c-0.7,0.3-1.3,0.8-1.7,1.5
		h-1.6c0-0.1,0.1-0.3,0.1-0.7c0.1-0.3,0.2-0.8,0.2-1.2c0.1-0.5,0.2-1,0.3-1.6c0.1-0.6,0.2-1.2,0.3-1.8c0.3-1.4,0.6-3,0.9-4.7h8.6
		v1.6h-7.3l-1.2,6.4c0.4-0.5,1-0.8,1.6-1.1C176.8,125.1,177.5,125,178.2,125z"/>
</g>
<rect id="XMLID_8_" x="47.3" y="41.6" class="st4" width="170.9" height="9.6"/>
<rect id="XMLID_7_" x="47.3" y="41.6" class="st1" width="170.9" height="9.6"/>
<line id="XMLID_6_" class="st0" x1="50.4" y1="111.9" x2="218.5" y2="111.9"/>
<line id="XMLID_4_" class="st1" x1="146.6" y1="50.8" x2="146.6" y2="41.5"/>
<line id="XMLID_3_" class="st1" x1="119.6" y1="50.8" x2="119.6" y2="41.5"/>
</svg>
