<?xml version="1.0" encoding="utf-8"?>
<!-- Generator: Adobe Illustrator 28.0.0, SVG Export Plug-In . SVG Version: 6.00 Build 0)  -->
<svg version="1.1" id="Capa_1" xmlns="http://www.w3.org/2000/svg" xmlns:xlink="http://www.w3.org/1999/xlink" x="0px" y="0px"
	 viewBox="0 0 250 150" style="enable-background:new 0 0 250 150;" xml:space="preserve">
<style type="text/css">
	.st0{fill:none;stroke:#010202;stroke-width:0.5;stroke-miterlimit:3.864;}
	.st1{enable-background:new    ;}
	.st2{fill:#010202;}
	.st3{fill:#EBE9E7;}
	.st4{fill:none;stroke:#010202;stroke-width:0.5;}
</style>
<polygon id="XMLID_10_" class="st0" points="128.8,50.7 134.5,50.7 136,99.3 127.3,99.3 "/>
<g class="st1">
	<path class="st2" d="M43.9,63.3h-9.6v-1.6h12.3l-9,17.8h-1.9L43.9,63.3z"/>
	<path class="st2" d="M60.8,70.5c0,0.8-0.2,1.6-0.5,2.4c-0.3,0.7-0.8,1.4-1.3,1.9c-0.6,0.6-1.2,1-2,1.3s-1.6,0.5-2.5,0.5
		c-0.9,0-1.8-0.2-2.6-0.5c-0.8-0.3-1.5-0.8-2-1.5c-0.6-0.6-1-1.4-1.3-2.3c-0.3-0.9-0.5-2-0.5-3.1c0-1.8,0.2-3.4,0.5-4.7
		c0.3-1.3,0.8-2.5,1.3-3.3c0.6-0.9,1.3-1.6,2.1-2c0.8-0.4,1.7-0.7,2.7-0.7c1.2,0,2.2,0.3,3.2,0.9c0.9,0.6,1.6,1.4,2.1,2.4l-1.1,1
		c-0.3-0.8-0.9-1.5-1.6-2S55.7,60,54.7,60c-0.7,0-1.4,0.2-2,0.5c-0.6,0.3-1.1,0.9-1.5,1.5c-0.4,0.7-0.8,1.5-1,2.4
		c-0.2,1-0.4,2.1-0.4,3.3c0.4-1,1-1.8,1.9-2.3c0.9-0.6,1.9-0.9,3-0.9c0.9,0,1.6,0.2,2.4,0.5c0.7,0.3,1.4,0.7,1.9,1.3
		c0.5,0.5,1,1.2,1.3,1.9C60.7,68.9,60.8,69.7,60.8,70.5z M54.6,75.1c0.6,0,1.2-0.1,1.8-0.4c0.6-0.2,1-0.6,1.5-1
		c0.4-0.4,0.8-0.9,1-1.5s0.4-1.2,0.4-1.8c0-0.6-0.1-1.2-0.4-1.8c-0.2-0.6-0.6-1-1-1.5c-0.4-0.4-0.9-0.7-1.5-1
		c-0.6-0.2-1.2-0.4-1.8-0.4c-0.6,0-1.2,0.1-1.8,0.4c-0.6,0.2-1.1,0.6-1.5,1c-0.4,0.4-0.8,0.9-1,1.5c-0.2,0.6-0.4,1.2-0.4,1.8
		c0,0.6,0.1,1.2,0.4,1.8s0.6,1,1,1.5c0.4,0.4,0.9,0.8,1.5,1C53.4,75,54,75.1,54.6,75.1z"/>
</g>
<g class="st1">
	<path class="st2" d="M114.8,113.5l-1.5,2.1c0.9,0.9,1.7,1.9,2.2,3.1c0.5,1.2,0.8,2.4,0.8,3.7c0,1.2-0.2,2.3-0.7,3.4
		c-0.4,1.1-1,2-1.8,2.9c-0.8,0.8-1.7,1.5-2.7,2s-2.2,0.7-3.4,0.7c-0.8,0-1.6-0.1-2.3-0.3c-0.7-0.2-1.4-0.5-2-0.9l-0.7,1.1h-2
		l1.4-2.1c-0.9-0.9-1.7-1.9-2.2-3.1c-0.5-1.2-0.8-2.4-0.8-3.7c0-1.2,0.2-2.3,0.7-3.4c0.4-1.1,1-2,1.8-2.9c0.8-0.8,1.7-1.5,2.7-2
		c1.1-0.5,2.2-0.7,3.4-0.7c0.8,0,1.6,0.1,2.3,0.3c0.7,0.2,1.4,0.5,2,0.9l0.8-1.1H114.8z M100.9,122.4c0,1,0.2,2,0.6,3
		c0.4,0.9,0.9,1.8,1.5,2.5l8.1-11.8c-0.5-0.3-1-0.6-1.6-0.7s-1.2-0.3-1.8-0.3c-1,0-2,0.2-2.8,0.6c-0.8,0.4-1.6,1-2.1,1.7
		c-0.6,0.7-1,1.5-1.4,2.4C101.1,120.6,100.9,121.5,100.9,122.4z M114.5,122.4c0-1-0.2-2-0.6-2.9c-0.4-0.9-0.9-1.7-1.6-2.4l-8.1,11.8
		c1,0.6,2.2,1,3.4,1c1,0,2-0.2,2.8-0.6c0.8-0.4,1.6-1,2.1-1.7c0.6-0.7,1-1.5,1.4-2.4S114.5,123.3,114.5,122.4z"/>
	<path class="st2" d="M134.5,129.7v1.5h-8.8v-1.5h3.7V119c-0.1,0.2-0.4,0.4-0.7,0.7s-0.7,0.4-1.1,0.6s-0.8,0.4-1.3,0.5
		c-0.4,0.1-0.8,0.2-1.1,0.2v-1.7c0.4,0,0.8-0.1,1.3-0.3s0.9-0.5,1.3-0.8c0.4-0.3,0.8-0.6,1.1-0.8c0.3-0.2,0.5-0.4,0.5-0.5h1.8v12.7
		H134.5z"/>
	<path class="st2" d="M136.2,131.3c0-0.6,0.1-1.1,0.2-1.7c0.1-0.6,0.3-1.1,0.6-1.7c0.3-0.6,0.7-1.1,1.3-1.6s1.3-1,2.2-1.5
		c0.5-0.2,1-0.5,1.6-0.7c0.5-0.2,1-0.5,1.5-0.8c0.5-0.3,0.8-0.6,1.1-1c0.3-0.4,0.4-0.8,0.4-1.3c0-0.3-0.1-0.6-0.2-0.9
		s-0.4-0.6-0.6-0.8c-0.3-0.2-0.6-0.4-1.1-0.6c-0.4-0.1-0.9-0.2-1.5-0.2s-1.1,0.1-1.5,0.2c-0.4,0.2-0.8,0.3-1.2,0.6
		c-0.3,0.2-0.6,0.4-0.9,0.7c-0.2,0.2-0.4,0.4-0.5,0.6l-1.2-1.2c0.1-0.1,0.3-0.3,0.6-0.5c0.3-0.3,0.7-0.5,1.1-0.8s1-0.5,1.7-0.7
		c0.6-0.2,1.4-0.3,2.1-0.3s1.5,0.1,2.1,0.3c0.6,0.2,1.1,0.5,1.6,0.9c0.4,0.4,0.8,0.8,1,1.3c0.2,0.5,0.3,1,0.3,1.5
		c0,0.7-0.2,1.3-0.5,1.8c-0.3,0.5-0.7,0.9-1.1,1.3c-0.5,0.4-0.9,0.7-1.5,0.9c-0.5,0.3-1,0.5-1.4,0.7c-0.6,0.2-1.1,0.5-1.6,0.8
		c-0.5,0.3-1,0.6-1.4,1c-0.4,0.3-0.8,0.7-1,1.2c-0.3,0.4-0.4,0.9-0.4,1.5h9.2v1.5H136.2z"/>
	<path class="st2" d="M162.9,124c0,1.1-0.2,2.1-0.5,3c-0.3,0.9-0.8,1.7-1.4,2.4s-1.3,1.2-2.1,1.6s-1.7,0.6-2.6,0.6
		c-0.9,0-1.8-0.2-2.6-0.6c-0.8-0.4-1.5-0.9-2.1-1.6c-0.6-0.7-1-1.5-1.4-2.4c-0.3-0.9-0.5-1.9-0.5-3c0-1.1,0.2-2.1,0.5-3
		c0.3-0.9,0.8-1.7,1.4-2.4c0.6-0.7,1.3-1.2,2.1-1.6c0.8-0.4,1.7-0.6,2.6-0.6c0.9,0,1.8,0.2,2.6,0.6c0.8,0.4,1.5,0.9,2.1,1.6
		s1,1.5,1.4,2.4S162.9,122.9,162.9,124z M161.2,124c0-0.9-0.1-1.7-0.3-2.5c-0.2-0.7-0.6-1.4-1-1.9c-0.4-0.5-0.9-0.9-1.5-1.2
		c-0.6-0.3-1.2-0.4-1.9-0.4c-0.7,0-1.3,0.1-1.9,0.4c-0.6,0.3-1.1,0.7-1.5,1.2c-0.4,0.5-0.7,1.2-1,1.9c-0.2,0.7-0.3,1.6-0.3,2.5
		c0,0.9,0.1,1.7,0.3,2.5s0.6,1.4,1,1.9c0.4,0.5,0.9,0.9,1.5,1.2c0.6,0.3,1.2,0.4,1.9,0.4c0.7,0,1.3-0.1,1.9-0.4
		c0.6-0.3,1.1-0.7,1.5-1.2c0.4-0.5,0.7-1.2,1-1.9S161.2,124.9,161.2,124z"/>
</g>
<rect id="XMLID_7_" x="80.9" y="41.7" class="st3" width="101.4" height="9.3"/>
<rect id="XMLID_6_" x="80.9" y="41.7" class="st4" width="101.4" height="9.3"/>
<line id="XMLID_5_" class="st0" x1="70.8" y1="41.8" x2="70.8" y2="100.1"/>
<line id="XMLID_4_" class="st0" x1="77.3" y1="110.3" x2="183.5" y2="110.3"/>
<polyline id="XMLID_3_" class="st4" points="136.2,99.3 154.7,99.3 147,51.4 "/>
<polyline id="XMLID_2_" class="st4" points="127.4,99.3 109,99.3 116.6,51.4 "/>
</svg>
