<?xml version="1.0" encoding="utf-8"?>
<!-- Generator: Adobe Illustrator 28.0.0, SVG Export Plug-In . SVG Version: 6.00 Build 0)  -->
<svg version="1.1" id="Capa_3" xmlns="http://www.w3.org/2000/svg" xmlns:xlink="http://www.w3.org/1999/xlink" x="0px" y="0px"
	 viewBox="0 0 250 150" style="enable-background:new 0 0 250 150;" xml:space="preserve">
<style type="text/css">
	.st0{fill:none;stroke:#010202;stroke-width:0.5;stroke-miterlimit:3.864;}
	.st1{fill:none;stroke:#010202;stroke-width:0.5;}
	.st2{enable-background:new    ;}
	.st3{fill:#010202;}
	.st4{fill:#EBE9E7;}
</style>
<polygon id="XMLID_19_" class="st0" points="129.7,50.8 135.5,50.8 137.1,100.7 128.1,100.7 "/>
<polyline id="XMLID_18_" class="st1" points="137.3,100.7 156.2,100.7 148.3,51.6 "/>
<polyline id="XMLID_13_" class="st1" points="128.2,100.7 109.3,100.7 117.2,51.6 "/>
<g class="st2">
	<path class="st3" d="M91.5,131.3v1.5h-8.5v-1.5h3.6v-10.7c-0.1,0.2-0.4,0.4-0.7,0.7c-0.3,0.2-0.7,0.4-1.1,0.6s-0.8,0.4-1.2,0.5
		c-0.4,0.1-0.8,0.2-1.1,0.2v-1.7c0.4,0,0.8-0.1,1.3-0.3c0.5-0.2,0.9-0.5,1.3-0.8c0.4-0.3,0.8-0.6,1-0.8c0.3-0.2,0.4-0.4,0.5-0.5h1.8
		v12.7H91.5z"/>
	<path class="st3" d="M105.7,127.9c0,0.8-0.2,1.5-0.5,2.1c-0.3,0.6-0.8,1.2-1.4,1.6c-0.6,0.5-1.2,0.8-2,1c-0.8,0.2-1.6,0.4-2.4,0.4
		c-0.9,0-1.7-0.1-2.5-0.4c-0.8-0.3-1.4-0.6-1.9-1.1c-0.5-0.5-1-1-1.3-1.7c-0.3-0.6-0.5-1.3-0.5-2c0-0.6,0.1-1.1,0.3-1.6
		c0.2-0.5,0.5-0.9,0.8-1.3c0.3-0.4,0.7-0.7,1.1-1c0.4-0.3,0.9-0.5,1.3-0.6c-0.4-0.2-0.8-0.4-1.1-0.6c-0.3-0.2-0.7-0.5-0.9-0.8
		c-0.3-0.3-0.5-0.7-0.6-1c-0.2-0.4-0.2-0.8-0.2-1.2c0-0.7,0.2-1.4,0.5-1.9c0.3-0.6,0.8-1,1.3-1.4c0.5-0.4,1.1-0.7,1.8-0.9
		c0.7-0.2,1.3-0.3,2-0.3s1.3,0.1,2,0.3c0.7,0.2,1.2,0.5,1.8,0.9s1,0.8,1.3,1.4c0.3,0.6,0.5,1.2,0.5,1.9c0,0.4-0.1,0.8-0.2,1.2
		c-0.2,0.4-0.4,0.7-0.6,1.1c-0.3,0.3-0.6,0.6-0.9,0.9c-0.4,0.2-0.7,0.4-1.1,0.6c0.5,0.2,0.9,0.4,1.4,0.7c0.4,0.3,0.8,0.6,1.1,1
		c0.3,0.4,0.6,0.8,0.8,1.3C105.6,126.8,105.7,127.3,105.7,127.9z M103.9,127.8c0-0.6-0.1-1.1-0.4-1.6c-0.3-0.5-0.6-0.8-1.1-1.2
		c-0.4-0.3-0.9-0.6-1.4-0.7c-0.5-0.2-1.1-0.2-1.6-0.2c-0.5,0-1.1,0.1-1.6,0.3s-1,0.4-1.4,0.8c-0.4,0.3-0.8,0.7-1,1.2
		c-0.2,0.5-0.4,1-0.4,1.5c0,0.6,0.1,1.1,0.4,1.6c0.3,0.5,0.6,0.8,1,1.2s0.9,0.6,1.4,0.7c0.5,0.2,1.1,0.2,1.6,0.2
		c0.5,0,1.1-0.1,1.6-0.3c0.5-0.2,1-0.4,1.4-0.8c0.4-0.3,0.8-0.7,1-1.2C103.8,128.8,103.9,128.3,103.9,127.8z M95.7,119.7
		c0,0.5,0.1,0.9,0.3,1.3s0.5,0.7,0.9,1c0.4,0.3,0.8,0.5,1.2,0.6c0.5,0.1,0.9,0.2,1.3,0.2c0.5,0,0.9-0.1,1.4-0.2
		c0.5-0.1,0.9-0.3,1.2-0.6s0.7-0.6,0.9-1c0.2-0.4,0.4-0.8,0.4-1.3c0-0.5-0.1-0.9-0.3-1.3s-0.5-0.7-0.9-0.9c-0.4-0.3-0.8-0.5-1.2-0.6
		c-0.5-0.1-1-0.2-1.5-0.2c-0.5,0-1,0.1-1.4,0.2s-0.9,0.3-1.2,0.6c-0.4,0.3-0.6,0.6-0.9,1C95.8,118.8,95.7,119.2,95.7,119.7z"/>
	<path class="st3" d="M113.8,125c0.8,0,1.6,0.1,2.3,0.4c0.7,0.3,1.3,0.7,1.8,1.2s0.9,1.1,1.2,1.8c0.3,0.7,0.5,1.5,0.5,2.3
		c0,0.9-0.2,1.7-0.5,2.4c-0.3,0.7-0.8,1.3-1.3,1.8c-0.6,0.5-1.2,0.9-2,1.2s-1.6,0.4-2.4,0.4c-0.6,0-1.2-0.1-1.8-0.2
		c-0.6-0.2-1.1-0.4-1.6-0.7s-0.9-0.7-1.3-1.1c-0.4-0.4-0.7-0.9-1-1.4l1.1-0.9c0.5,0.8,1.1,1.5,1.9,2c0.8,0.5,1.7,0.8,2.7,0.8
		c0.6,0,1.2-0.1,1.7-0.3c0.5-0.2,1-0.5,1.4-0.9c0.4-0.4,0.7-0.8,0.9-1.4c0.2-0.5,0.3-1.1,0.3-1.8c0-0.6-0.1-1.2-0.3-1.7
		c-0.2-0.5-0.5-0.9-0.9-1.3c-0.4-0.4-0.8-0.7-1.4-0.8c-0.5-0.2-1.1-0.3-1.7-0.3c-0.8,0-1.5,0.2-2.2,0.5c-0.7,0.3-1.3,0.8-1.7,1.5
		h-1.6c0-0.1,0.1-0.3,0.1-0.7c0.1-0.3,0.1-0.8,0.2-1.2s0.2-1,0.3-1.6c0.1-0.6,0.2-1.2,0.3-1.8c0.3-1.4,0.6-3,0.9-4.7h8.6v1.6h-7.3
		l-1.2,6.4c0.4-0.5,1-0.8,1.6-1.1C112.4,125.1,113.1,125,113.8,125z"/>
	<path class="st3" d="M129.1,119.8l3.9,5.1l0.2,0.4l0.2-0.4l3.9-5.1h1.8l-5,6.6l5,6.5h-1.8l-3.9-5.1l-0.2-0.3l-0.2,0.3l-3.9,5.1
		h-1.8l5-6.5l-5-6.6H129.1z"/>
	<path class="st3" d="M156,131.3v1.5h-8.5v-1.5h3.5v-10.7c-0.1,0.2-0.4,0.4-0.7,0.7s-0.7,0.4-1.1,0.6s-0.8,0.4-1.2,0.5
		c-0.4,0.1-0.8,0.2-1.1,0.2v-1.7c0.4,0,0.8-0.1,1.3-0.3s0.9-0.5,1.3-0.8s0.8-0.6,1-0.8c0.3-0.2,0.4-0.4,0.5-0.5h1.8v12.7H156z"/>
	<path class="st3" d="M157.7,132.8c0-0.6,0-1.1,0.1-1.7c0.1-0.6,0.3-1.1,0.6-1.7c0.3-0.6,0.7-1.1,1.2-1.6c0.5-0.5,1.3-1,2.2-1.5
		c0.5-0.2,1-0.5,1.5-0.7c0.5-0.2,1-0.5,1.5-0.8c0.4-0.3,0.8-0.6,1.1-1s0.4-0.8,0.4-1.3c0-0.3-0.1-0.6-0.2-0.9s-0.3-0.6-0.6-0.8
		c-0.3-0.2-0.6-0.4-1-0.6c-0.4-0.1-0.9-0.2-1.4-0.2c-0.5,0-1,0.1-1.5,0.2c-0.4,0.2-0.8,0.3-1.1,0.6c-0.3,0.2-0.6,0.4-0.8,0.7
		c-0.2,0.2-0.4,0.4-0.5,0.6l-1.1-1.2c0.1-0.1,0.3-0.3,0.6-0.5c0.3-0.3,0.7-0.5,1.1-0.8c0.5-0.3,1-0.5,1.6-0.7
		c0.6-0.2,1.3-0.3,2.1-0.3s1.5,0.1,2,0.3c0.6,0.2,1.1,0.5,1.5,0.9c0.4,0.4,0.7,0.8,1,1.3c0.2,0.5,0.3,1,0.3,1.5
		c0,0.7-0.1,1.3-0.4,1.8c-0.3,0.5-0.7,0.9-1.1,1.3c-0.4,0.4-0.9,0.7-1.4,0.9c-0.5,0.3-1,0.5-1.3,0.7c-0.5,0.2-1.1,0.5-1.6,0.8
		c-0.5,0.3-1,0.6-1.4,1c-0.4,0.3-0.7,0.7-1,1.2s-0.4,0.9-0.4,1.5h8.9v1.5H157.7z"/>
	<path class="st3" d="M183.5,125.5c0,1.1-0.2,2.1-0.5,3c-0.3,0.9-0.8,1.7-1.3,2.4c-0.6,0.7-1.2,1.2-2,1.6s-1.6,0.6-2.5,0.6
		c-0.9,0-1.7-0.2-2.5-0.6s-1.4-0.9-2-1.6s-1-1.5-1.3-2.4c-0.3-0.9-0.5-1.9-0.5-3c0-1.1,0.2-2.1,0.5-3s0.8-1.7,1.3-2.4s1.2-1.2,2-1.6
		c0.8-0.4,1.6-0.6,2.5-0.6c0.9,0,1.7,0.2,2.5,0.6c0.8,0.4,1.4,0.9,2,1.6c0.6,0.7,1,1.5,1.3,2.4C183.4,123.4,183.5,124.4,183.5,125.5
		z M181.8,125.5c0-0.9-0.1-1.7-0.3-2.5c-0.2-0.7-0.5-1.4-0.9-1.9c-0.4-0.5-0.9-0.9-1.4-1.2c-0.6-0.3-1.2-0.4-1.8-0.4
		c-0.7,0-1.3,0.1-1.9,0.4c-0.6,0.3-1,0.7-1.4,1.2c-0.4,0.5-0.7,1.2-0.9,1.9c-0.2,0.7-0.3,1.6-0.3,2.5c0,0.9,0.1,1.7,0.3,2.5
		c0.2,0.7,0.5,1.4,0.9,1.9c0.4,0.5,0.9,0.9,1.4,1.2c0.6,0.3,1.2,0.4,1.9,0.4c0.7,0,1.3-0.1,1.8-0.4c0.6-0.3,1-0.7,1.4-1.2
		c0.4-0.5,0.7-1.2,0.9-1.9S181.8,126.4,181.8,125.5z"/>
</g>
<rect id="XMLID_8_" x="47.3" y="41.6" class="st4" width="170.9" height="9.6"/>
<rect id="XMLID_7_" x="47.3" y="41.6" class="st1" width="170.9" height="9.6"/>
<line id="XMLID_6_" class="st0" x1="50.4" y1="111.9" x2="218.5" y2="111.9"/>
<line id="XMLID_4_" class="st1" x1="146.6" y1="50.8" x2="146.6" y2="41.5"/>
<line id="XMLID_3_" class="st1" x1="119.6" y1="50.8" x2="119.6" y2="41.5"/>
</svg>
